<svg id="Layer_1" data-name="Layer 1" xmlns="http://www.w3.org/2000/svg" width="524.53" height="83.26" viewBox="0 0 524.53 83.26"><defs><style>.cls-1{fill:#29a1b1;}.cls-2{fill:#231f20;}</style></defs><title>ambient_intel-K</title><path class="cls-1" d="M399.34,48.25a5,5,0,1,0,5,5,5,5,0,0,0-5-5" transform="translate(-25.71 -25.03)"/><path class="cls-1" d="M275.73,48.25a5,5,0,1,0,5,5,5,5,0,0,0-5-5" transform="translate(-25.71 -25.03)"/><path class="cls-1" d="M283.35,93.08a7.82,7.82,0,0,1-1.39-.22,10,10,0,0,1-1.27-.43,2.37,2.37,0,0,1-1.26-1,3.4,3.4,0,0,1-.4-1.73v-24l-.42-.42-10.38.3v2.33a12.18,12.18,0,0,1,2,.31,5.55,5.55,0,0,1,1.64.61,3.84,3.84,0,0,1,1.21,1.33,3.57,3.57,0,0,1,.43,1.74V90a3.35,3.35,0,0,1-.4,1.74,2.14,2.14,0,0,1-1.24.94,5.47,5.47,0,0,1-1.27.24l-1.42.12v2h14.19Z" transform="translate(-25.71 -25.03)"/><path class="cls-1" d="M317.11,92.82a9.56,9.56,0,0,1-1.45-.18,7.82,7.82,0,0,1-1.24-.42,2.37,2.37,0,0,1-1.22-1,3.44,3.44,0,0,1-.36-1.68V74.25a11.17,11.17,0,0,0-2-7q-2-2.64-6.28-2.64a11.44,11.44,0,0,0-3.43.48,10.67,10.67,0,0,0-2.62,1.19,15.67,15.67,0,0,0-2,1.63q-1.07,1-1.79,1.72h-.15V65.45L294.1,65l-9.78.3v2.32a12,12,0,0,1,1.67.22,4.07,4.07,0,0,1,1.34.52,3.71,3.71,0,0,1,1.21,1.38,4,4,0,0,1,.43,1.86V89.78a3.36,3.36,0,0,1-.4,1.74,2.15,2.15,0,0,1-1.24.94,5.46,5.46,0,0,1-1.27.24l-1.42.12v2H299v-2a12.13,12.13,0,0,1-1.51-.21,5.83,5.83,0,0,1-1.36-.45,2.69,2.69,0,0,1-1.25-1,3.06,3.06,0,0,1-.42-1.67V72.58a13.21,13.21,0,0,1,.85-1.27,6.62,6.62,0,0,1,1.57-1.48,10.27,10.27,0,0,1,2.33-1.21,8.21,8.21,0,0,1,2.9-.49,4.6,4.6,0,0,1,3.6,1.7,7.14,7.14,0,0,1,1.48,4.83V89.78a3.35,3.35,0,0,1-.4,1.74,2.14,2.14,0,0,1-1.24.94,5.69,5.69,0,0,1-1.36.24l-1.51.12v2h14.37Z" transform="translate(-25.71 -25.03)"/><path class="cls-1" d="M335.83,91.59a9.69,9.69,0,0,1-2,.34q-1.45.13-2.19.13a6.12,6.12,0,0,1-2.56-.45,3.06,3.06,0,0,1-1.43-1.31,5.71,5.71,0,0,1-.64-2.16,29.24,29.24,0,0,1-.13-3.09V68.63h8.38V65.77h-8.44V56.61h-5.43v9.15h-5.43v2.86h5.31V88.55a8.17,8.17,0,0,0,1.51,5.26q1.5,1.86,5.2,1.86a14.07,14.07,0,0,0,4.23-.55q1.73-.55,3.67-1.36Z" transform="translate(-25.71 -25.03)"/><path class="cls-1" d="M341.64,76.92a12.11,12.11,0,0,1,2.25-7.24,6.39,6.39,0,0,1,5.2-2.6,5.11,5.11,0,0,1,3.07.86A6.06,6.06,0,0,1,354,70.17a10.93,10.93,0,0,1,.91,3.18,24.26,24.26,0,0,1,.28,3.57Zm0,2.5h19.47v-2a17.24,17.24,0,0,0-.67-4.92,11.07,11.07,0,0,0-2-3.94,9.82,9.82,0,0,0-3.73-2.77,13.6,13.6,0,0,0-5.52-1,12.16,12.16,0,0,0-5.65,1.3,12.93,12.93,0,0,0-4.22,3.41,15.85,15.85,0,0,0-2.67,5,17.82,17.82,0,0,0-.91,5.62,21.18,21.18,0,0,0,.85,6.05,14.45,14.45,0,0,0,2.58,5,12.21,12.21,0,0,0,4.4,3.4,14.49,14.49,0,0,0,6.22,1.25,12.46,12.46,0,0,0,7.13-2.09,15.06,15.06,0,0,0,4.95-5.61l-2.09-1.28A12.3,12.3,0,0,1,356,91.33a8.25,8.25,0,0,1-4.58,1.24,9.38,9.38,0,0,1-4.47-1,8.3,8.3,0,0,1-3-2.73,12.6,12.6,0,0,1-1.74-4.15,23.14,23.14,0,0,1-.55-5.26" transform="translate(-25.71 -25.03)"/><path class="cls-1" d="M375.94,93.08a9.46,9.46,0,0,1-1.45-.21,6.86,6.86,0,0,1-1.3-.45,2.47,2.47,0,0,1-1.25-1,3.38,3.38,0,0,1-.39-1.71V49.34l-.42-.45-11.06.3v2.26a17.91,17.91,0,0,1,2.3.36,6.11,6.11,0,0,1,2,.66,3.89,3.89,0,0,1,1.21,1.48,4.5,4.5,0,0,1,.46,2V90a3.27,3.27,0,0,1-.42,1.75,2.21,2.21,0,0,1-1.25.94,7.09,7.09,0,0,1-1.28.22l-1.46.13v2h14.34Z" transform="translate(-25.71 -25.03)"/><path class="cls-1" d="M391.58,93.08a9.46,9.46,0,0,1-1.45-.21,6.86,6.86,0,0,1-1.3-.45,2.47,2.47,0,0,1-1.25-1,3.38,3.38,0,0,1-.39-1.71V49.34l-.42-.45-11.06.3v2.26a17.91,17.91,0,0,1,2.3.36,6.11,6.11,0,0,1,2,.66,3.9,3.9,0,0,1,1.21,1.48,4.5,4.5,0,0,1,.46,2V90a3.27,3.27,0,0,1-.42,1.75,2.21,2.21,0,0,1-1.25.94,7.09,7.09,0,0,1-1.28.22l-1.46.13v2h14.34Z" transform="translate(-25.71 -25.03)"/><path class="cls-1" d="M407.09,93.08a7.82,7.82,0,0,1-1.39-.22,10,10,0,0,1-1.27-.43,2.37,2.37,0,0,1-1.26-1,3.4,3.4,0,0,1-.4-1.73v-24l-.42-.42-10.38.3v2.33a12.18,12.18,0,0,1,2,.31,5.55,5.55,0,0,1,1.64.61,3.85,3.85,0,0,1,1.21,1.33,3.57,3.57,0,0,1,.43,1.74V90a3.35,3.35,0,0,1-.4,1.74,2.14,2.14,0,0,1-1.24.94,5.47,5.47,0,0,1-1.27.24l-1.42.12v2h14.19Z" transform="translate(-25.71 -25.03)"/><path class="cls-1" d="M424.82,74.56a9.22,9.22,0,0,1-1.39,5.23,4.47,4.47,0,0,1-4,2.07,4.38,4.38,0,0,1-3.74-2.09,9.28,9.28,0,0,1-1.45-5.4,15.71,15.71,0,0,1,.25-2.85,6.94,6.94,0,0,1,.85-2.37A4.48,4.48,0,0,1,417,67.51a4.69,4.69,0,0,1,2.4-.58,4.55,4.55,0,0,1,4,2.07,9.71,9.71,0,0,1,1.42,5.56M418,94.6q3.43,0,6,.15t3.43.27a3.92,3.92,0,0,1,2.36,1.46,4.57,4.57,0,0,1,.77,2.74,5.73,5.73,0,0,1-2.52,5.11,12.29,12.29,0,0,1-6.9,1.68,16.13,16.13,0,0,1-4.29-.49,8.57,8.57,0,0,1-2.8-1.27,4.71,4.71,0,0,1-1.55-1.76,4.66,4.66,0,0,1-.45-2,5.4,5.4,0,0,1,1.36-3.8A8.24,8.24,0,0,1,418,94.6m10.35-26h6.92V65.77H425q-1.37-.42-2.7-.69a13.42,13.42,0,0,0-2.67-.27,11.79,11.79,0,0,0-8,2.68,8.64,8.64,0,0,0-3.12,6.86,7.89,7.89,0,0,0,1.58,4.87,11.54,11.54,0,0,0,4.44,3.44v.45a8.81,8.81,0,0,0-3.38,2.28A4.41,4.41,0,0,0,410,88.31a4.24,4.24,0,0,0,.48,2.1,5.1,5.1,0,0,0,1.25,1.48,7.12,7.12,0,0,0,1.64.94,18.41,18.41,0,0,0,1.85.67v.42a10.74,10.74,0,0,0-6.08,1.91,5.64,5.64,0,0,0-2.39,4.8,6.25,6.25,0,0,0,3.31,5.71q3.31,2,10,2a25.89,25.89,0,0,0,6.86-.77,15.52,15.52,0,0,0,4.77-2.18,8.7,8.7,0,0,0,3.73-7.21,8.19,8.19,0,0,0-.69-3.55A8.71,8.71,0,0,0,432.87,92a8.9,8.9,0,0,0-2.52-1.64,7.83,7.83,0,0,0-2.76-.66q-1,0-3.24-.18t-3.59-.18q-1.22,0-2.37-.09a9.48,9.48,0,0,1-2-.3,3.29,3.29,0,0,1-1.52-.79,2.18,2.18,0,0,1-.63-1.68,2.1,2.1,0,0,1,.75-1.7,4.65,4.65,0,0,1,1.43-.86H420a10.94,10.94,0,0,0,7.32-2.68,8.31,8.31,0,0,0,3.15-6.56,9.25,9.25,0,0,0-.54-3,8.66,8.66,0,0,0-1.64-2.83Z" transform="translate(-25.71 -25.03)"/><path class="cls-1" d="M440.43,76.92a12.11,12.11,0,0,1,2.25-7.24,6.39,6.39,0,0,1,5.2-2.6,5.11,5.11,0,0,1,3.07.86,6.06,6.06,0,0,1,1.88,2.23,10.93,10.93,0,0,1,.91,3.18,24.26,24.26,0,0,1,.28,3.57Zm0,2.5H459.9v-2a17.24,17.24,0,0,0-.67-4.92,11.07,11.07,0,0,0-2-3.94,9.82,9.82,0,0,0-3.73-2.77,13.6,13.6,0,0,0-5.52-1,12.16,12.16,0,0,0-5.65,1.3,12.93,12.93,0,0,0-4.22,3.41,15.85,15.85,0,0,0-2.67,5,17.82,17.82,0,0,0-.91,5.62,21.18,21.18,0,0,0,.85,6.05,14.45,14.45,0,0,0,2.58,5,12.21,12.21,0,0,0,4.4,3.4,14.49,14.49,0,0,0,6.22,1.25,12.46,12.46,0,0,0,7.13-2.09,15.06,15.06,0,0,0,4.95-5.61l-2.09-1.28a12.3,12.3,0,0,1-3.71,4.48,8.25,8.25,0,0,1-4.58,1.24,9.38,9.38,0,0,1-4.47-1,8.3,8.3,0,0,1-3-2.73A12.6,12.6,0,0,1,441,84.68a23.14,23.14,0,0,1-.55-5.26" transform="translate(-25.71 -25.03)"/><path class="cls-1" d="M493.43,93.08A9.56,9.56,0,0,1,492,92.9a7.78,7.78,0,0,1-1.24-.42,2.37,2.37,0,0,1-1.22-1,3.44,3.44,0,0,1-.36-1.68V74.5a11.17,11.17,0,0,0-2-7q-2-2.64-6.28-2.64a11.44,11.44,0,0,0-3.43.48,10.67,10.67,0,0,0-2.62,1.19,15.67,15.67,0,0,0-2,1.63q-1.07,1-1.79,1.72h-.15V65.71l-.42-.42-9.78.3v2.33a12,12,0,0,1,1.67.22,4.07,4.07,0,0,1,1.34.52A3.71,3.71,0,0,1,464.86,70a4,4,0,0,1,.43,1.86V90a3.36,3.36,0,0,1-.4,1.74,2.15,2.15,0,0,1-1.24.94,5.46,5.46,0,0,1-1.27.24l-1.42.12v2h14.4v-2a12.13,12.13,0,0,1-1.51-.21,5.83,5.83,0,0,1-1.36-.45,2.69,2.69,0,0,1-1.25-1,3.06,3.06,0,0,1-.42-1.67V72.83a13.21,13.21,0,0,1,.85-1.27,6.62,6.62,0,0,1,1.57-1.48,10.27,10.27,0,0,1,2.33-1.21,8.21,8.21,0,0,1,2.9-.49,4.6,4.6,0,0,1,3.6,1.7,7.14,7.14,0,0,1,1.48,4.83V90a3.35,3.35,0,0,1-.4,1.74,2.14,2.14,0,0,1-1.24.94,5.69,5.69,0,0,1-1.36.24l-1.51.12v2h14.37Z" transform="translate(-25.71 -25.03)"/><path class="cls-1" d="M513,93.77a15.4,15.4,0,0,0,5.19-5.58l-1.9-1.25a13.75,13.75,0,0,1-3.62,4.23,8,8,0,0,1-4.84,1.41,7.53,7.53,0,0,1-6.44-3.5,15.42,15.42,0,0,1-2.46-9,23.46,23.46,0,0,1,.68-6.05,12.06,12.06,0,0,1,1.79-4,7,7,0,0,1,2.51-2.25,6.3,6.3,0,0,1,2.72-.61,8,8,0,0,1,2.27.31,2.63,2.63,0,0,1,1.59,1.23,15.15,15.15,0,0,1-.42,2.07,11.15,11.15,0,0,0-.36,2.75,2.66,2.66,0,0,0,1,2,3.88,3.88,0,0,0,2.73.89,2.56,2.56,0,0,0,2.36-1.15,4.88,4.88,0,0,0,.72-2.64,6.73,6.73,0,0,0-2.71-5.65,11.28,11.28,0,0,0-7-2.07,13,13,0,0,0-5.79,1.3,13.17,13.17,0,0,0-4.41,3.41,16,16,0,0,0-2.82,4.9,17,17,0,0,0-1,5.8q0,7.13,3.61,11.36t10,4.23A12.19,12.19,0,0,0,513,93.77" transform="translate(-25.71 -25.03)"/><path class="cls-1" d="M525.21,76.92a12.11,12.11,0,0,1,2.25-7.24,6.39,6.39,0,0,1,5.2-2.6,5.11,5.11,0,0,1,3.07.86,6.06,6.06,0,0,1,1.88,2.23,10.93,10.93,0,0,1,.91,3.18,24.26,24.26,0,0,1,.28,3.57Zm0,2.5h19.47v-2a17.24,17.24,0,0,0-.67-4.92,11.07,11.07,0,0,0-2-3.94,9.82,9.82,0,0,0-3.73-2.77,13.6,13.6,0,0,0-5.52-1,12.16,12.16,0,0,0-5.65,1.3,12.92,12.92,0,0,0-4.22,3.41,15.83,15.83,0,0,0-2.67,5,17.82,17.82,0,0,0-.91,5.62,21.18,21.18,0,0,0,.85,6.05,14.45,14.45,0,0,0,2.58,5,12.21,12.21,0,0,0,4.4,3.4,14.49,14.49,0,0,0,6.22,1.25,12.46,12.46,0,0,0,7.13-2.09,15.06,15.06,0,0,0,4.95-5.61l-2.09-1.28a12.3,12.3,0,0,1-3.71,4.48A8.25,8.25,0,0,1,535,92.57a9.38,9.38,0,0,1-4.47-1,8.3,8.3,0,0,1-3-2.73,12.6,12.6,0,0,1-1.74-4.15,23.14,23.14,0,0,1-.55-5.26" transform="translate(-25.71 -25.03)"/><path class="cls-2" d="M48.87,45H49l6.36,18.55H43.25ZM45.62,30,25.71,82.45H36.21l4.2-10.77H58.15l3.93,10.77H72.71L53.34,30Z" transform="translate(-25.71 -25.03)"/><path class="cls-2" d="M84.28,49.2H74.8V82.45h9.48V66.13c0-3.52-.27-10.43,5-10.43,4.94,0,4.54,6.64,4.54,9.89V82.45h9.48V66.13c0-3.45-.07-10.43,5.08-10.43,4.67,0,4.47,6,4.47,9.28V82.45h9.48V61.73c0-7.24-2.1-13.61-10.56-13.61a11.51,11.51,0,0,0-9.68,5.21,10.54,10.54,0,0,0-9.55-5.21,10,10,0,0,0-8.13,4.06h-.13Z" transform="translate(-25.71 -25.03)"/><path class="cls-2" d="M152,65.79c0,4.47-3,9.34-7.85,9.34s-7.85-4.88-7.85-9.34,3-9.28,7.85-9.28S152,61.32,152,65.79m9.62-.14c0-8.73-5.76-17.54-15.17-17.54a12.24,12.24,0,0,0-9.21,4.13V25h-9.48V82.45h9.48V79.33h.13a11,11,0,0,0,8.87,4.2c9.82,0,15.37-8.8,15.37-17.88" transform="translate(-25.71 -25.03)"/><rect class="cls-2" x="139.75" y="24.17" width="9.48" height="33.25"/><path class="cls-2" d="M170.21,29.63a5.62,5.62,0,1,0,5.62,5.62,5.65,5.65,0,0,0-5.62-5.62" transform="translate(-25.71 -25.03)"/><path class="cls-2" d="M201.69,61.45H189c.47-3.45,2.57-6.7,6.37-6.7s5.82,3.32,6.3,6.7m8.94,5.89V66.19c0-10-4.87-18.08-15.78-18.08s-16.12,7.92-16.12,18,6.3,17.4,16.59,17.4c7,0,12.8-3.72,15.1-10.36l-8.74-1.42c-1.29,2.64-3.25,4.54-6.37,4.54-4.94,0-6.57-4.74-6.57-8.94Z" transform="translate(-25.71 -25.03)"/><path class="cls-2" d="M223.84,49.2h-9.48V82.45h9.48V66c0-4,.07-10.29,5.69-10.29,5.35,0,5.15,5.15,5.15,9.14V82.45h9.48V62.13c0-7.72-2.57-14-11.51-14-3.39,0-6.7,1.15-8.67,4.13h-.13Z" transform="translate(-25.71 -25.03)"/><polygon class="cls-2" points="235.16 32.16 240.98 32.16 240.98 24.17 235.16 24.17 235.16 12.93 225.68 12.93 225.68 24.17 219.88 24.17 219.88 32.16 225.68 32.16 225.68 57.42 235.16 57.42 235.16 32.16"/><path class="cls-2" d="M546.24,92.75a.54.54,0,0,0-.51-.32.47.47,0,0,0-.49.46c0,.26.26.37.46.46l.2.09c.39.17.71.36.71.83a.94.94,0,0,1-1.86.15l.32-.09a.61.61,0,0,0,.59.55.6.6,0,0,0,.61-.58c0-.35-.27-.46-.55-.59l-.18-.08c-.35-.16-.65-.33-.65-.76a.78.78,0,0,1,.83-.76.85.85,0,0,1,.77.46Z" transform="translate(-25.71 -25.03)"/><path class="cls-2" d="M547.48,92l1.08,2.49L549.65,92l.6,3.14h-.34l-.38-2h0l-1,2.13-1-2.13h0l-.38,2h-.34Z" transform="translate(-25.71 -25.03)"/></svg>